<svg xmlns="http://www.w3.org/2000/svg" width="1em" height="1em" fill="none" viewBox="0 0 24 14" data-testid="shipping-banner-icon-plp" class=" " stroke="white" style="font-size: 24px;"><path stroke="#fff" stroke-dasharray="12.47 7.42" stroke-linecap="round" stroke-linejoin="round" stroke-width="0.87" d="M2.906 12.466h19.989"></path><path stroke="#fff" stroke-linecap="round" stroke-linejoin="round" stroke-width="0.87" d="M5.871 1.47v-.133c0-.353.274-.638.613-.638L14.24.697c.338 0 .613.285.613.638V8a.626.626 0 0 1-.613.638l-7.757.002a.626.626 0 0 1-.613-.638v-2.11M22.435 6.16v2.87a.512.512 0 0 1-.501.522h-5.275a.512.512 0 0 1-.5-.522V2.782c0-.288.224-.522.5-.522h2.422l3.354 3.9Z"></path><path stroke="#fff" stroke-linecap="round" stroke-width="0.87" d="M6.386 9.626h11.415"></path><path stroke="#fff" stroke-linejoin="round" stroke-width="0.87" d="M18.106 2.275v3.654H22.2"></path><mask id="shipping_truck_white_svg__a" width="8" height="4" x="6" y="9" maskUnits="userSpaceOnUse" style="mask-type: luminance;"><path fill="#fff" d="M13.342 9.624H6.999v3.311h6.343V9.624Z"></path></mask><g mask="url(#shipping_truck_white_svg__a)"><path stroke="#fff" stroke-width="0.87" d="M10.252 9.229c.768 0 1.392.65 1.392 1.45 0 .8-.624 1.45-1.392 1.45-.768 0-1.392-.65-1.392-1.45 0-.8.624-1.45 1.392-1.45Z"></path></g><mask id="shipping_truck_white_svg__b" width="6" height="4" x="16" y="9" maskUnits="userSpaceOnUse" style="mask-type: luminance;"><path fill="#fff" d="M21.782 9.45h-5.457v3.342h5.457V9.45Z"></path></mask><g mask="url(#shipping_truck_white_svg__b)"><path stroke="#fff" stroke-width="0.87" d="M19.606 9.229c.768 0 1.392.65 1.392 1.45 0 .8-.624 1.45-1.392 1.45-.768 0-1.392-.65-1.392-1.45 0-.8.624-1.45 1.392-1.45Z"></path></g><mask id="shipping_truck_white_svg__c" width="7" height="5" x="15" y="9" maskUnits="userSpaceOnUse" style="mask-type: luminance;"><path fill="#fff" d="m21.86 10.805-5.243-1.729-.745 2.563 5.244 1.729.745-2.563Z"></path></mask><g mask="url(#shipping_truck_white_svg__c)"><path stroke="#fff" stroke-width="0.174" d="M19.803 9.986c.372.124.585.53.476.907"></path></g><mask id="shipping_truck_white_svg__d" width="6" height="4" x="8" y="8" maskUnits="userSpaceOnUse" style="mask-type: luminance;"><path fill="#fff" d="m8.04 11.119 5.457.409.164-2.701-5.457-.41-.164 2.702Z"></path></mask><g mask="url(#shipping_truck_white_svg__d)"><path stroke="#fff" stroke-width="0.174" d="M10.209 11.402a.726.726 0 0 1-.656-.772"></path></g><path stroke="#fff" stroke-linecap="round" stroke-linejoin="round" stroke-width="0.87" d="M3.918 2.815h5.224M1.306 4.315H7.04"></path></svg>